<svg width="100" height="100" xmlns="http://www.w3.org/2000/svg" xmlns:svg="http://www.w3.org/2000/svg">
 <g class="layer">
  <title>Layer 1</title>
  <path d="m50.05,0.1l-49.85,17.82l7.65,60.59l42.19,21.39l42.19,-21.39l7.65,-60.59l-49.85,-17.82l0.02,0z" fill="#DD0031" id="svg_1"/>
  <path d="m50.01,0.1l0,100.22l42.13,-21.48l7.64,-60.85l-49.78,-17.89l0.01,0z" fill="#C3002F" id="svg_2"/>
  <path d="m49.82,13.47l-27.92,64.12l10.38,0l5.64,-14.31l23.66,0l5.64,14.31l10.38,0l-27.82,-64.12l0.04,0l0.01,0zm8.16,40.96l-16.25,0l8.16,-20.12l8.16,20.12l-0.04,0l-0.04,0l0.01,0z" fill="white" id="svg_3"/>
 </g>
</svg>