<?xml version="1.0"?>
<svg width="50" height="50" xmlns="http://www.w3.org/2000/svg" xmlns:svg="http://www.w3.org/2000/svg" xmlns:xlink="http://www.w3.org/1999/xlink" version="1.1" xml:space="preserve">
 <g class="layer">
  <title>Layer 1</title>
  <g id="svg_1" transform="matrix(1 0 0 1 0 0) matrix(0.137235 0 0 0.0981518 -9.09215 -0.0869592)">
   <g id="svg_2">
    <g id="svg_3">
     <path d="m392.42,118.07l-17.07,-102.4c-0.41,-2.51 -1.93,-4.7 -4.11,-5.97c-2.19,-1.29 -4.84,-1.53 -7.23,-0.65l-82.41,29.97l0,-30.49c0,-4.72 -3.82,-8.53 -8.54,-8.53l-34.13,0c-4.71,0 -8.53,3.81 -8.53,8.53l0,30.49l-82.42,-29.97c-2.39,-0.88 -5.03,-0.64 -7.22,0.65c-2.18,1.27 -3.69,3.46 -4.11,5.97l-17.07,102.4c-0.53,3.18 0.79,6.4 3.4,8.3l61.67,44.85c-3.61,8.24 -6.96,16.57 -9.97,25.05l47.18,0c4.72,0 8.54,3.81 8.54,8.53s-3.82,8.53 -8.54,8.53l-52.78,0c-1.7,5.65 -3.22,11.34 -4.65,17.07l40.37,0c4.72,0 8.53,3.81 8.53,8.53s-3.81,8.54 -8.53,8.54l-44.15,0c-4.61,23.2 -7.05,46.86 -7.05,70.64l0,61.72l14.53,5.81c56.58,20.58 119.17,20.57 175.99,-0.09l14.28,-6l0,-61.44c0,-50.65 -10.76,-100.8 -31,-146.92l61.62,-44.82c2.61,-1.9 3.93,-5.12 3.4,-8.3zm-162.02,-24.05c-1.32,1.7 -2.54,3.46 -3.82,5.19c-1.63,2.17 -3.25,4.35 -4.83,6.56c-1.66,2.34 -3.29,4.71 -4.9,7.08c-1.45,2.14 -2.87,4.29 -4.28,6.46c-1.68,2.61 -3.34,5.22 -4.96,7.85c-1.06,1.75 -2.09,3.51 -3.13,5.27c-4.43,7.52 -8.69,15.15 -12.58,22.96l-54.62,-39.72l14.52,-87.08l78.6,28.58l0,36.85zm34.13,-42.82l0,45.75l0,0.06l0,73.66c0,4.71 -3.82,8.53 -8.53,8.53c-4.7,0 -8.53,-3.82 -8.53,-8.53l0,-73.66l0,-0.05l0,-45.76l0,-34.13l17.06,0l0,34.13zm55.57,104.19c-1.42,-2.87 -2.99,-5.67 -4.5,-8.51c-0.88,-1.67 -1.73,-3.34 -2.63,-4.99c-1.52,-2.76 -3.12,-5.48 -4.71,-8.21c-1.27,-2.16 -2.53,-4.32 -3.83,-6.46c-1.54,-2.5 -3.11,-4.98 -4.7,-7.45c-1.47,-2.29 -2.98,-4.55 -4.51,-6.81c-1.61,-2.37 -3.21,-4.72 -4.87,-7.04c-1.56,-2.21 -3.18,-4.37 -4.8,-6.53c-1.32,-1.79 -2.59,-3.61 -3.95,-5.37l0,-36.85l78.61,-28.57l14.51,87.07l-54.62,39.72z" fill="#000000" id="svg_4"/>
     <path d="m255.88,418.09c-31.82,0 -63.59,-5.51 -93.84,-16.51l-8.44,-3.37l0,11.39c0,56.47 45.94,102.4 102.4,102.4c56.46,0 102.4,-45.93 102.4,-102.4l0,-11.55l-8.06,3.39c-30.53,11.11 -62.52,16.65 -94.46,16.65z" fill="#000000" id="svg_5"/>
    </g>
   </g>
  </g>
  <use id="svg_19" transform="matrix(0.0510563 0 0 0.0505808 13.0092 16.0627)" xlink:href="#svg_18"/>
  <text fill="#ffffff" font-family="Serif" font-size="9" id="svg_20" stroke="#ff0000" stroke-width="0" text-anchor="middle" x="25.94" xml:space="preserve" y="47.65">oban</text>
 </g>
 <defs>
  <symbol height="512px" id="svg_18" version="1.1" viewBox="0 0 512 512" width="512px" xmlns="http://www.w3.org/2000/svg" xmlns:xlink="http://www.w3.org/1999/xlink">
   <title>Slice</title>
   <g fill="none" fill-rule="evenodd" id="svg_15">
    <g id="svg_16" transform="translate(-0.000000, 0.000000)">
     <polygon fill="#E3F3FB" id="svg_17" points="463.597485 169.989414 436.981415 74.9785283 341.970529 48.3624584 377.594209 134.365735"/>
     <polygon fill="#90BAD2" id="Path" points="427.973806 255.992691 377.594209 134.365735 463.597485 169.989414"/>
     <path d="m437,74.96l26.61,95.01l28.87,-11.96c-12.69,-30.77 -31.9,-59.51 -55.47,-83l-0.01,-0.05z" fill="#458378" id="Path"/>
     <path d="m492.48,158.01c12.8,30.74 19.55,64.66 19.49,97.96l-48.36,-86l28.87,-11.96z" fill="#163132" id="Path"/>
     <polygon fill="#ACE6EA" id="Path" points="463.612351 341.974907 511.974672 255.97163 463.612351 169.968354 427.988672 255.97163"/>
     <polygon fill="#6EC9CC" id="Path" points="377.609075 377.598586 427.988672 255.97163 463.612351 341.974907"/>
     <path d="m512,255.97l-48.36,86l28.86,11.96c12.79,-30.73 19.53,-64.63 19.47,-97.92l0.03,-0.04z" fill="#10454F" id="Path"/>
     <path d="m492.5,353.93c-12.68,30.78 -31.9,59.54 -55.48,83.05l26.62,-95.01l28.86,11.96z" fill="#39727A" id="Path"/>
     <polygon fill="#9BC3C8" id="Path" points="342.010723 463.597595 437.021609 436.981388 463.637679 341.970502 377.634403 377.594181"/>
     <polygon fill="#84B4B2" id="Path" points="256.007447 427.973778 377.634403 377.594181 342.010723 463.597595"/>
     <path d="m437.04,437l-95.01,26.61l11.96,28.87c30.77,-12.69 59.51,-31.9 83,-55.47l0.05,-0.01z" fill="#23535A" id="Path"/>
     <path d="m353.99,492.48c-30.74,12.8 -64.66,19.55 -97.96,19.49l86,-48.36l11.96,28.87z" fill="#0C2629" id="Path"/>
     <polygon fill="#0F5058" id="Path" points="170.025231 463.612462 256.028508 511.974782 342.031784 463.612462 256.028508 427.988644"/>
     <polygon fill="#356977" id="Path" points="134.401552 377.609185 256.028508 427.988644 170.025231 463.612462"/>
     <path d="m256.03,512l-86,-48.36l-11.96,28.86c30.73,12.79 64.63,19.53 97.92,19.47l0.04,0.03z" fill="#246179" id="Path"/>
     <path d="m158.07,492.5c-30.78,-12.68 -59.54,-31.9 -83.05,-55.48l95.01,26.62l-11.96,28.86z" fill="#0E4643" id="Path"/>
     <polygon fill="#21806F" id="Path" points="48.4026801 342.010833 75.01875 437.021719 170.029636 463.637789 134.405957 377.634513"/>
     <polygon fill="#59BABC" id="Path" points="84.0263595 256.007557 134.405957 377.634513 48.4026801 342.010833"/>
     <path d="m75,437.04l-26.61,-95.01l-28.87,11.96c12.69,30.77 31.9,59.51 55.47,83l0.01,0.05z" fill="#0D3638" id="Path"/>
     <path d="m19.52,353.99c-12.8,-30.74 -19.55,-64.66 -19.49,-97.96l48.36,86l-28.87,11.96z" fill="#439AA1" id="Path"/>
     <polygon fill="#467D7C" id="Path" points="48.3878138 170.025341 0.0254241494 256.028618 48.3878138 342.031894 84.0114932 256.028618"/>
     <polygon fill="#3393AA" id="Path" points="134.39109 134.401662 84.0114932 256.028618 48.3878138 170.025341"/>
     <path d="m0,256.03l48.36,-86l-28.86,-11.96c-12.79,30.73 -19.53,64.63 -19.47,97.92l-0.03,0.04z" fill="#94C0CE" id="Path"/>
     <path d="m19.5,158.07c12.68,-30.78 31.9,-59.54 55.48,-83.05l-26.62,95.01l-28.86,-11.96z" fill="#B3D6E2" id="Path"/>
     <polygon fill="#E7FAFA" id="Path" points="169.989442 48.4026526 74.9785558 75.0188601 48.3623483 170.029608 134.365625 134.405929"/>
     <polygon fill="#8ACADC" id="Path" points="255.992718 84.0264697 134.365625 134.405929 169.989442 48.4026526"/>
     <path d="m74.96,75l95.01,-26.61l-11.96,-28.87c-30.77,12.69 -59.51,31.9 -83,55.47l-0.05,0.01z" fill="#A9D8D1" id="Path"/>
     <path d="m158.01,19.52c30.74,-12.8 64.66,-19.55 97.96,-19.49l-86,48.36l-11.96,-28.87z" fill="#89EDF3" id="Path"/>
     <polygon fill="#FFFFFF" id="Path" points="341.974934 48.3877862 255.971658 0.0254654447 169.968381 48.3877862 255.971658 84.0116033"/>
     <polygon fill="#DEFDFF" id="Path" points="377.598614 134.391063 255.971658 84.0116033 341.974934 48.3877862"/>
     <path d="m255.97,0l86,48.36l11.96,-28.86c-30.73,-12.79 -64.63,-19.53 -97.92,-19.47l-0.04,-0.03z" fill="#B8EAF1" id="Path"/>
     <path d="m353.93,19.5c30.78,12.69 59.54,31.9 83.05,55.48l-95.01,-26.62l11.96,-28.86z" fill="#9FCFF0" id="Path"/>
    </g>
   </g>
  </symbol>
 </defs>
</svg>