<?xml version="1.0"?>
<svg width="727.3062730627307" height="644.08" xmlns="http://www.w3.org/2000/svg" xmlns:svg="http://www.w3.org/2000/svg">
 <defs>
  <filter id="filter7822-1">
   <feGaussianBlur stdDeviation="4.02"/>
  </filter>
  <radialGradient cx="680.14" cy="815.24" gradientTransform="matrix(1.21338,-3.4589524e-7,3.8323164e-7,1.34436,-145.12998,-280.73133)" gradientUnits="userSpaceOnUse" id="radialGradient3945" r="198.83">
   <stop offset="0" stop-color="#fc0"/>
   <stop offset="1" stop-color="#e40039" stop-opacity="0.96"/>
  </radialGradient>
  <radialGradient cx="680.14" cy="815.24" gradientTransform="matrix(1.49474,.01418,-.00972,1.02424,-328.71668,-29.5429)" gradientUnits="userSpaceOnUse" id="radialGradient3947" r="136.7">
   <stop offset="0" stop-color="#ffd600"/>
   <stop offset="1" stop-color="#fc0" stop-opacity="0"/>
  </radialGradient>
 </defs>
 <title>Pow</title>
 <g class="layer">
  <title>Layer 1</title>
  <g id="svg_9" transform="translate(-77 -102)">
   <g id="svg_1" transform="matrix(1.4258,.75913,-.80093,1.39715,77.18401,-1238.89065)">
    <path d="m753.78,611.58c0,0 -38.63,81.37 -72.12,90.53c-15.45,4.22 -41.51,-6.94 -61.47,-17.56c-20.67,-18.16 -36.97,-35.56 -36.97,-35.56s44.17,91.1 32.84,118.31c-0.05,0.11 -0.1,0.23 -0.15,0.34c-30.5,14.17 -99.72,13.66 -99.72,13.66s21.54,7.26 43.34,17.4c-34.85,10.2 -72.56,15.47 -72.56,15.47s97.36,14.87 110.03,37.44c1.33,2.38 2.46,5.02 3.37,7.88c-13.9,38.05 -54.5,90.09 -54.5,90.09s27.33,-18.99 56.04,-33.91c-4.19,32.12 -13.38,62.03 -13.38,62.03s55.32,-57.15 86.25,-56.53c2.48,0.05 5.1,0.47 7.81,1.16c22.78,35.19 41.5,96.56 41.5,96.56s-0.2,-36.78 4.28,-69.06c21.49,17.89 39.04,37.53 39.04,37.53s-23.5,-56.31 -17.91,-86.69c22.62,-12.46 64.77,-12.18 92.69,-10.31c23.62,7.86 42.43,16.72 42.43,16.72s-8.39,-5.77 -19.62,-14.66c2.98,0.36 4.75,0.6 4.75,0.6s-26.29,-18.46 -46.53,-39.78c-9.01,-10.8 -15.68,-21.8 -16.75,-31.5c-3.15,-28.43 47.44,-82.72 47.44,-82.72s-13.59,8.8 -31.19,16.34c13.72,-22.29 28.62,-40.53 28.62,-40.53s-73.41,45.28 -97.56,26.87c-1.31,-0.99 -2.5,-2.16 -3.59,-3.43c-5.71,-34.42 3.9,-92.35 3.9,-92.35s-4.74,9.05 -11.84,20.94c3.92,-29.2 11.53,-55.28 11.53,-55.28z" fill-rule="evenodd" filter="url(#filter7822-1)" id="svg_2" opacity="0.68" transform="matrix(1.1219,0,0,1.1219,-83.5971,-99.37549)"/>
    <path d="m748.12,611.58c0,0 -38.63,81.37 -72.12,90.53c-15.44,4.22 -41.51,-6.94 -61.47,-17.56c-20.67,-18.16 -36.97,-35.56 -36.97,-35.56s44.18,91.1 32.84,118.31c-0.04,0.11 -0.1,0.23 -0.15,0.34c-30.5,14.17 -99.72,13.66 -99.72,13.66s21.54,7.26 43.34,17.4c-34.84,10.2 -72.56,15.47 -72.56,15.47s97.37,14.87 110.03,37.44c1.34,2.38 2.46,5.02 3.38,7.88c-13.9,38.05 -54.5,90.09 -54.5,90.09s27.33,-18.99 56.03,-33.91c-4.18,32.12 -13.38,62.03 -13.38,62.03s55.32,-57.15 86.25,-56.53c2.49,0.05 5.11,0.47 7.82,1.16c22.77,35.19 41.5,96.56 41.5,96.56s-0.21,-36.78 4.28,-69.06c21.48,17.89 39.03,37.53 39.03,37.53s-23.5,-56.31 -17.91,-86.69c22.62,-12.46 64.77,-12.18 92.69,-10.31c23.62,7.86 42.44,16.72 42.44,16.72s-8.4,-5.77 -19.63,-14.66c2.98,0.36 4.75,0.6 4.75,0.6s-26.29,-18.46 -46.53,-39.78c-9.01,-10.8 -15.67,-21.8 -16.75,-31.5c-3.15,-28.43 47.44,-82.72 47.44,-82.72s-13.59,8.8 -31.19,16.34c13.73,-22.29 28.63,-40.53 28.63,-40.53s-73.41,45.28 -97.57,26.87c-1.31,-0.99 -2.49,-2.16 -3.59,-3.43c-5.7,-34.42 3.91,-92.35 3.91,-92.35s-4.75,9.05 -11.85,20.94c3.92,-29.2 11.53,-55.28 11.53,-55.28z" fill="url(#radialGradient3945)" fill-rule="evenodd" id="svg_3"/>
    <path d="m734.1,677.76c0,0 -29.5,54.45 -52.82,59.52c-10.76,2.34 -28.25,-6.28 -41.56,-14.3c-13.53,-13.22 -24.09,-25.76 -24.09,-25.76s27.01,64.16 18.24,82.42c-0.04,0.08 -0.08,0.16 -0.12,0.23c-21.46,8.62 -68.96,5.74 -68.96,5.74s14.52,5.77 29.12,13.53c-24.3,5.73 -50.38,7.97 -50.38,7.97s66.3,13.76 74.17,29.72c0.83,1.68 1.51,3.54 2.03,5.53c-10.93,25.62 -40.7,59.87 -40.7,59.87s19.45,-12.04 39.7,-21.24c-4.04,21.9 -11.44,42.1 -11.44,42.1s40.06,-37.22 61.28,-35.66c1.7,0.12 3.48,0.51 5.32,1.08c14.35,24.99 24.97,67.8 24.97,67.8s1.2,-25.26 5.46,-47.25c14.09,13.06 25.42,27.19 25.42,27.19s-14.07,-39.52 -9.13,-60.17c15.98,-7.73 44.91,-6 64.01,-3.7c15.93,6.26 28.53,13.03 28.53,13.03s-5.56,-4.27 -12.94,-10.78c2.03,0.35 3.24,0.58 3.24,0.58s-17.38,-13.63 -30.5,-29.01c-5.79,-7.74 -9.96,-15.54 -10.35,-22.24c-1.12,-19.63 35.59,-55.06 35.59,-55.06s-9.65,5.55 -22.01,10.09c10.24,-14.81 21.13,-26.79 21.13,-26.79s-52.05,28.41 -67.96,14.89c-0.86,-0.73 -1.64,-1.57 -2.34,-2.49c-2.66,-23.83 6.05,-63.25 6.05,-63.25s-3.59,6.04 -8.9,13.94c3.76,-19.91 9.94,-37.53 9.94,-37.53z" fill="url(#radialGradient3947)" fill-rule="evenodd" id="svg_4" opacity="0.61"/>
   </g>
   <g id="svg_5" transform="matrix(.03599,-1.57044,-1.65484,-.03415,1786.53471,1516.60148)">
    <path d="m753.78,611.58c0,0 -38.63,81.37 -72.12,90.53c-15.45,4.22 -41.51,-6.94 -61.47,-17.56c-20.67,-18.16 -36.97,-35.56 -36.97,-35.56s44.17,91.1 32.84,118.31c-0.05,0.11 -0.1,0.23 -0.15,0.34c-30.5,14.17 -99.72,13.66 -99.72,13.66s21.54,7.26 43.34,17.4c-34.85,10.2 -72.56,15.47 -72.56,15.47s97.36,14.87 110.03,37.44c1.33,2.38 2.46,5.02 3.37,7.88c-13.9,38.05 -54.5,90.09 -54.5,90.09s27.33,-18.99 56.04,-33.91c-4.19,32.12 -13.38,62.03 -13.38,62.03s55.32,-57.15 86.25,-56.53c2.48,0.05 5.1,0.47 7.81,1.16c22.78,35.19 41.5,96.56 41.5,96.56s-0.2,-36.78 4.28,-69.06c21.49,17.89 39.04,37.53 39.04,37.53s-23.5,-56.31 -17.91,-86.69c22.62,-12.46 64.77,-12.18 92.69,-10.31c23.62,7.86 42.43,16.72 42.43,16.72s-8.39,-5.77 -19.62,-14.66c2.98,0.36 4.75,0.6 4.75,0.6s-26.29,-18.46 -46.53,-39.78c-9.01,-10.8 -15.68,-21.8 -16.75,-31.5c-3.15,-28.43 47.44,-82.72 47.44,-82.72s-13.59,8.8 -31.19,16.34c13.72,-22.29 28.62,-40.53 28.62,-40.53s-73.41,45.28 -97.56,26.87c-1.31,-0.99 -2.5,-2.16 -3.59,-3.43c-5.71,-34.42 3.9,-92.35 3.9,-92.35s-4.74,9.05 -11.84,20.94c3.92,-29.2 11.53,-55.28 11.53,-55.28z" fill-rule="evenodd" filter="url(#filter7822-1)" id="svg_6" opacity="0.68" transform="matrix(1.1219,0,0,1.1219,-83.5971,-99.37549)"/>
    <path d="m748.12,611.58c0,0 -38.63,81.37 -72.12,90.53c-15.44,4.22 -41.51,-6.94 -61.47,-17.56c-20.67,-18.16 -36.97,-35.56 -36.97,-35.56s44.18,91.1 32.84,118.31c-0.04,0.11 -0.1,0.23 -0.15,0.34c-30.5,14.17 -99.72,13.66 -99.72,13.66s21.54,7.26 43.34,17.4c-34.84,10.2 -72.56,15.47 -72.56,15.47s97.37,14.87 110.03,37.44c1.34,2.38 2.46,5.02 3.38,7.88c-13.9,38.05 -54.5,90.09 -54.5,90.09s27.33,-18.99 56.03,-33.91c-4.18,32.12 -13.38,62.03 -13.38,62.03s55.32,-57.15 86.25,-56.53c2.49,0.05 5.11,0.47 7.82,1.16c22.77,35.19 41.5,96.56 41.5,96.56s-0.21,-36.78 4.28,-69.06c21.48,17.89 39.03,37.53 39.03,37.53s-23.5,-56.31 -17.91,-86.69c22.62,-12.46 64.77,-12.18 92.69,-10.31c23.62,7.86 42.44,16.72 42.44,16.72s-8.4,-5.77 -19.63,-14.66c2.98,0.36 4.75,0.6 4.75,0.6s-26.29,-18.46 -46.53,-39.78c-9.01,-10.8 -15.67,-21.8 -16.75,-31.5c-3.15,-28.43 47.44,-82.72 47.44,-82.72s-13.59,8.8 -31.19,16.34c13.73,-22.29 28.63,-40.53 28.63,-40.53s-73.41,45.28 -97.57,26.87c-1.31,-0.99 -2.49,-2.16 -3.59,-3.43c-5.7,-34.42 3.91,-92.35 3.91,-92.35s-4.75,9.05 -11.85,20.94c3.92,-29.2 11.53,-55.28 11.53,-55.28z" fill="url(#radialGradient3945)" fill-rule="evenodd" id="svg_7"/>
    <path d="m734.1,677.76c0,0 -29.5,54.45 -52.82,59.52c-10.76,2.34 -28.25,-6.28 -41.56,-14.3c-13.53,-13.22 -24.09,-25.76 -24.09,-25.76s27.01,64.16 18.24,82.42c-0.04,0.08 -0.08,0.16 -0.12,0.23c-21.46,8.62 -68.96,5.74 -68.96,5.74s14.52,5.77 29.12,13.53c-24.3,5.73 -50.38,7.97 -50.38,7.97s66.3,13.76 74.17,29.72c0.83,1.68 1.51,3.54 2.03,5.53c-10.93,25.62 -40.7,59.87 -40.7,59.87s19.45,-12.04 39.7,-21.24c-4.04,21.9 -11.44,42.1 -11.44,42.1s40.06,-37.22 61.28,-35.66c1.7,0.12 3.48,0.51 5.32,1.08c14.35,24.99 24.97,67.8 24.97,67.8s1.2,-25.26 5.46,-47.25c14.09,13.06 25.42,27.19 25.42,27.19s-14.07,-39.52 -9.13,-60.17c15.98,-7.73 44.91,-6 64.01,-3.7c15.93,6.26 28.53,13.03 28.53,13.03s-5.56,-4.27 -12.94,-10.78c2.03,0.35 3.24,0.58 3.24,0.58s-17.38,-13.63 -30.5,-29.01c-5.79,-7.74 -9.96,-15.54 -10.35,-22.24c-1.12,-19.63 35.59,-55.06 35.59,-55.06s-9.65,5.55 -22.01,10.09c10.24,-14.81 21.13,-26.79 21.13,-26.79s-52.05,28.41 -67.96,14.89c-0.86,-0.73 -1.64,-1.57 -2.34,-2.49c-2.66,-23.83 6.05,-63.25 6.05,-63.25s-3.59,6.04 -8.9,13.94c3.76,-19.91 9.94,-37.53 9.94,-37.53z" fill="url(#radialGradient3947)" fill-rule="evenodd" id="svg_8" opacity="0.61"/>
   </g>
  </g>
 </g>
</svg>