<?xml version="1.0"?>
<svg width="124" height="89" xmlns="http://www.w3.org/2000/svg" xmlns:svg="http://www.w3.org/2000/svg" xml:space="preserve">
 <g class="layer">
  <g clip-path="url(#clip0)" id="svg_2" transform="matrix(1 0 0 1 1 -19)">
   <path d="m46.56,78.74l-0.97,-0.18c-6.92,-1.29 -11.3,-5.48 -13.37,-12.06c-1.29,-4.1 1.06,-7.13 5.36,-7.32c3.52,-0.17 5.94,1.86 8.07,4.22c2.75,3.03 5.27,6.28 7.97,9.36c3.89,4.44 8.47,7.3 14.74,6.42c5.62,-0.79 10.52,-3.05 14.78,-6.76c0.64,-0.56 1.35,-1.05 2.02,-1.56l-0.42,-0.51c-3.58,1.12 -7.23,1.49 -10.96,1.3c-5.64,-0.28 -11.02,-1.46 -15.83,-4.56c-4.39,-2.82 -7.62,-6.61 -9.16,-11.67c-1.24,-4.09 1.3,-6.95 5.53,-6.36c1.68,0.24 3.09,0.99 4.35,2.06c1.03,0.87 2.02,1.79 3.07,2.64c4.95,3.97 11.85,4.19 18.13,-0.12c-10.32,-0.05 -17.34,-5.73 -23.5,-12.92c-2.41,-2.81 -4.77,-5.68 -7.23,-8.45c-4.77,-5.36 -10.05,-10.08 -17.29,-11.69c-9.25,-2.06 -18.17,-0.71 -26.74,3.21c-1.71,0.78 -3.35,1.69 -5.11,3.16c0.87,0 1.35,0.01 1.82,0c4.32,-0.11 7.56,1.8 9.89,5.34c1.7,2.57 2.5,5.48 3.11,8.47c0.91,4.44 0.44,8.97 0.96,13.43c1.35,11.47 7.21,19.47 18.12,23.56c4,1.51 8.11,2.01 12.66,0.98l0,0.01zm-27.58,-52.32c-1.72,0.44 -3.1,-0.26 -4.52,-1.7c2.43,-0.6 4.58,-0.84 6.88,-0.93c-0.18,1.5 -1.07,2.31 -2.35,2.63l-0.01,0zm56.51,66.97c-0.15,-1.11 -1.09,-1.59 -1.83,-2.17c-3.28,-2.55 -7.12,-3.46 -11.19,-3.53c-2.42,-0.05 -4.83,-0.23 -7.11,-1.08c-1.05,-0.39 -2.23,-0.89 -2.2,-2.24c0.03,-1.38 1.22,-1.77 2.31,-2.1c0.89,-0.26 1.81,-0.43 2.83,-0.67c-2.58,-1.65 -5.1,-1.88 -8.45,-0.53c-5.29,2.12 -10.5,1.87 -15.77,-0.03c-2.97,-1.07 -5.61,-2.76 -8.36,-4.25l-0.07,0.05c0.02,-0.01 0.04,-0.03 0.07,-0.05c-0.07,-0.21 -0.19,-0.21 -0.35,-0.1l0.21,0.19c2.28,3.74 5.36,6.74 8.84,9.31c6.7,4.95 14.01,7.89 22.57,6.59c2.77,-0.43 5.55,-0.75 8.34,-0.98c3.5,-0.28 6.83,0.7 10.16,1.59zm-16.14,-53.58c-0.18,-0.14 -0.36,-0.47 -0.74,-0.13c3.08,4.17 7.04,7.24 11.8,9.17c7.69,3.13 15.49,3.66 23.47,0.91c6.2,-2.14 10.66,-0.05 12.97,5.96c0.34,-6.98 -3.77,-12.07 -10.32,-13.06c-3.68,-0.57 -7.08,0.65 -10.52,1.65c-9.6,2.79 -18.52,1.41 -26.66,-4.5zm47.83,27.23c1.25,0.11 2.5,0.22 3.75,0.33c-2.83,-2.48 -6.27,-2.68 -9.75,-2.48c-5.31,0.3 -9.13,3.36 -12.61,7.01c-3.07,3.23 -5.85,6.84 -10.42,8.13c0.07,0.14 0.09,0.21 0.11,0.21c0.62,0.01 1.24,0.04 1.85,0.01c6.65,-0.3 12.92,-1.7 17.91,-6.53c1.57,-1.52 2.97,-3.21 4.49,-4.79c1.26,-1.32 2.79,-2.05 4.67,-1.89zm-15.46,-8.24c-4.96,0.43 -9.27,2.49 -13.32,5.19c-3.12,2.09 -6.46,3.07 -10.2,2.42c-0.66,-0.11 -1.33,-0.2 -1.99,-0.3l-0.02,0.28c0.24,0.12 0.47,0.26 0.71,0.36c0.63,0.25 1.24,0.55 1.89,0.7c7.21,1.72 14.11,0.84 20.34,-3.18c3.92,-2.54 7.98,-3.02 12.38,-2.36c0.45,0.07 0.89,0.15 1.33,0.19c0.42,0.04 0.85,0.45 1.41,0c-3.85,-2.78 -7.99,-3.7 -12.53,-3.3zm-17.74,-16.86c2.6,0.09 5.2,-0.25 7.92,-1.86c-0.8,0.07 -1.13,0.07 -1.46,0.13c-3.75,0.75 -7.12,-0.07 -10.12,-2.44c-1.1,-0.87 -2.22,-1.72 -3.34,-2.58c-4.42,-3.38 -9.49,-4.51 -15.03,-4.41c0.09,0.27 0.09,0.46 0.19,0.56c6.03,6.1 13.01,10.3 21.84,10.6zm43.66,31.31c-3.73,-3.7 -8.74,-4.18 -13.38,-0.94c3.07,0.13 5.37,1.11 7.24,3.05c0.66,0.69 1.35,1.34 2.09,1.95c2.83,2.28 7.61,2.39 10.41,0.27c-3.29,-1.28 -3.29,-1.28 -6.36,-4.33zm-37.18,28.36c-3.28,-6.11 -8.8,-7.49 -15.17,-7.08c1.88,0.52 3.66,1.35 5.26,2.46c1.48,1.03 2.73,2.31 3.96,3.63c2.43,2.6 6.24,4.19 8.76,3.65c-1.16,-0.72 -2.19,-1.49 -2.81,-2.66zm30.53,-34.11c0,-0.04 0,-0.08 0,-0.12l-0.01,0.01l0.01,-0.01l-0.06,-0.01l0.04,0.03l0.02,0.09l0,0.01zm-35.32,26.03c-0.04,-0.02 -0.08,-0.05 -0.12,-0.07c0,0.03 0.01,0.05 0.02,0.08c0.01,0.01 0.07,0 0.1,-0.01zm-0.12,-0.07l-0.02,-0.06l-0.01,0.02l0.01,-0.02l-0.04,-0.01l0.01,0.05l0.04,0.02l0.01,0z" fill="#FD4F00" id="svg_3" transform="matrix(-1 0 0 1.03226 124 0)"/>
  </g>
  <path d="m103.65,5.65c0.82,-0.09 1.71,-0.09 2.54,0c0.85,0.09 1.71,0.17 2.5,0.31c0.78,0.14 1.89,0.24 1.82,0.68c-0.1,0.69 -1.1,0.88 -1.75,1.24c-0.66,0.37 -1.59,0.49 -2.44,0.37c-0.74,-0.1 -1.34,-0.65 -1.89,-1.16l-0.51,-0.49l-0.27,-0.67" fill="#f90000" id="svg_9" stroke="#bf0000" stroke-linecap="round" stroke-width="nul"/>
 </g>
</svg>