<?xml version="1.0"?>
<svg width="50" height="50" xmlns="http://www.w3.org/2000/svg" xmlns:svg="http://www.w3.org/2000/svg" xmlns:xlink="http://www.w3.org/1999/xlink">
 <g class="layer">
  <title>Layer 1</title>
  <path d="m24.61,0.58c-3.2,0.02 -6.2,2.54 -8.4,7.05c-0.01,0.01 -0.01,0.02 -0.02,0.03l-13.7,25.61l-0.02,0.04c-2.55,4.29 -3.09,8.33 -1.51,11.29c1.58,2.97 5.1,4.49 9.8,4.24l27.79,0c4.7,0.25 8.22,-1.28 9.8,-4.24c1.58,-2.97 1.04,-7.01 -1.51,-11.3l-0.02,-0.04l-13.85,-25.69c-0.01,-0.02 -0.02,-0.03 -0.03,-0.04c-2.15,-4.48 -5.14,-6.98 -8.34,-6.96l0,0zm-0.03,2.11c1.42,-0.02 2.78,0.72 4,1.99c1.21,1.26 2.35,3.05 3.47,5.39l12.23,22.69l0.02,0.04c1.27,2.12 2.16,4.03 2.61,5.77c0.46,1.75 0.48,3.38 -0.16,4.75c-0.63,1.37 -1.88,2.33 -3.54,2.88c-1.64,0.54 -3.73,0.71 -6.33,0.57l-24.5,0c-2.4,0.13 -4.4,-0.02 -6.02,-0.5c-1.63,-0.49 -2.92,-1.36 -3.65,-2.68c-0.72,-1.32 -0.81,-2.96 -0.4,-4.75c0.41,-1.78 1.3,-3.77 2.65,-6.04l12.1,-22.61c0.01,-0.01 0.01,-0.02 0.02,-0.04c1.14,-2.34 2.28,-4.14 3.5,-5.41c1.22,-1.28 2.57,-2.04 4,-2.05l0,0zm0.02,2.09c-0.79,0.01 -1.65,0.42 -2.65,1.46c-0.99,1.04 -2.06,2.68 -3.15,4.92l-0.01,0.02l-0.01,0.02l-7.41,13.85l6.46,0.02l-3.28,-2.02l0.98,-1.81l5.35,3.3c0.13,-0.16 0.28,-0.31 0.43,-0.45l-3.09,-5.72l1.7,-1.05l3.1,5.73c0.19,-0.07 0.38,-0.12 0.58,-0.16l0,-6.63l1.96,0l0,6.65c0.19,0.04 0.38,0.1 0.56,0.17l3.11,-5.76l1.69,1.05l-3.12,5.78c0.14,0.14 0.27,0.28 0.4,0.43l5.42,-3.34l0.98,1.81l-5.42,3.34c0.06,0.19 0.11,0.39 0.15,0.58l6.25,0l0,2.09l-6.25,0c-0.04,0.2 -0.09,0.4 -0.15,0.59l5.42,3.34l-0.98,1.81l-5.41,-3.33c-0.13,0.15 -0.26,0.3 -0.4,0.43l3.12,5.78l-1.69,1.05l-3.11,-5.76c-0.18,0.07 -0.37,0.12 -0.56,0.17l0,6.64l-1.96,0l0,-6.62c-0.2,-0.04 -0.39,-0.1 -0.58,-0.16l-3.09,5.73l-1.7,-1.05l3.1,-5.73c-0.15,-0.14 -0.29,-0.29 -0.42,-0.45l-5.37,3.31l-0.98,-1.81l3.18,-1.96l-9.56,0l-1.51,2.81l-0.01,0.02l-0.01,0.02c-1.3,2.17 -2.09,4 -2.42,5.46c-0.33,1.45 -0.21,2.45 0.19,3.19c0.41,0.74 1.17,1.33 2.49,1.73c1.32,0.4 3.15,0.55 5.44,0.43l0.03,0l24.55,0l0.03,0c2.49,0.14 4.39,-0.05 5.7,-0.48c1.32,-0.43 2,-1.04 2.35,-1.8c0.35,-0.76 0.41,-1.82 0.03,-3.26c-0.38,-1.44 -1.19,-3.22 -2.4,-5.25l-0.01,-0.02l-0.01,-0.02l-12.26,-22.73l-0.01,-0.02l-0.01,-0.02c-1.07,-2.24 -2.13,-3.87 -3.11,-4.89c-0.98,-1.02 -1.83,-1.41 -2.62,-1.4zm-0.07,20.1c-1.13,0 -2.14,0.72 -2.62,1.72l-0.27,0.57l-0.6,0l-10.74,-0.04l-0.97,1.8l12.36,0l0.28,0.55c0.5,0.99 1.45,1.67 2.56,1.67c1.62,0 2.94,-1.41 2.94,-3.14c0,-1.73 -1.32,-3.14 -2.94,-3.14z" fill="#000000" id="svg_1" stroke="#ff0000"/>
  <use fill="#ff0000" id="svg_10" transform="matrix(0.576903 0 0 0.675634 11.8015 9.49601)" xlink:href="#svg_9"/>
 </g>
 <defs>
  <symbol id="svg_9" viewBox="0 0 128 128" xmlns="http://www.w3.org/2000/svg">
   <linearGradient gradientTransform="matrix(.1297 0 0 .2 -46.03 17.198)" gradientUnits="userSpaceOnUse" id="svg_8" x1="835.59" x2="821.21" y1="-36.55" y2="553.41">
    <stop offset="0" stop-color="#d9d8dc"/>
    <stop offset="1" stop-color="#fff" stop-opacity="0.39"/>
   </linearGradient>
   <path clip-rule="evenodd" d="m64.4,0.5c-27.7,13.4 -62.5,82.9 -33.5,113.4c26.8,33.5 85.4,1.3 68.4,-40.5c-21.5,-36 -35,-37.9 -34.9,-72.9z" fill="url(#svg_8)" fill-rule="evenodd"/>
   <linearGradient gradientTransform="matrix(.1142 0 0 .2271 -47.053 17.229)" gradientUnits="userSpaceOnUse" id="svg_7" x1="942.36" x2="824.69" y1="-40.59" y2="472.24">
    <stop offset="0" stop-color="#8d67af" stop-opacity="0.67"/>
    <stop offset="1" stop-color="#9f8daf"/>
   </linearGradient>
   <path clip-rule="evenodd" d="m64.4,0.2c-27.6,13.4 -62.5,82.7 -33.4,113.3c10.7,12.4 28,16.5 37.7,9.1c26.4,-18.8 7.4,-53.1 10.4,-78.5c-11,-10.2 -14.9,-32.8 -14.7,-43.9z" fill="url(#svg_7)" fill-rule="evenodd"/>
   <linearGradient gradientTransform="matrix(.1227 0 0 .2115 -46.493 17.206)" gradientUnits="userSpaceOnUse" id="svg_6" x1="924.65" x2="924.65" y1="120.51" y2="505.85">
    <stop offset="0" stop-color="#26053d" stop-opacity="0.76"/>
    <stop offset="1" stop-color="#b7b4b4" stop-opacity="0.28"/>
   </linearGradient>
   <path clip-rule="evenodd" d="m56.7,4.3c-22.3,15.9 -28.2,75 -24.1,94.2c8.2,48.1 75.2,28.3 69.6,-16.5c-6,-29.2 -48.8,-39.2 -45.5,-77.7z" fill="url(#svg_6)" fill-rule="evenodd"/>
   <linearGradient gradientTransform="matrix(.1848 0 0 .1404 -42.394 17.138)" gradientUnits="userSpaceOnUse" id="svg_5" x1="428.03" x2="607.33" y1="198.45" y2="559.25">
    <stop offset="0" stop-color="#91739f" stop-opacity="0.46"/>
    <stop offset="1" stop-color="#32054f" stop-opacity="0.54"/>
   </linearGradient>
   <path clip-rule="evenodd" d="m78.8,49.8c10.4,13.4 12.7,22.6 6.8,27.9c-27.7,19.4 -61.3,7.4 -54,-37.3c-9.5,22.6 -27.1,56.4 11.7,61.2c20.8,3.6 54,2 58.9,-16.1c-0.2,-15.9 -10.8,-22.9 -23.4,-35.7z" fill="url(#svg_5)" fill-rule="evenodd"/>
   <linearGradient gradientTransform="matrix(.1418 0 0 .1829 -45.23 17.18)" gradientUnits="userSpaceOnUse" id="svg_4" x1="907.89" x2="590.24" y1="540.64" y2="201.28">
    <stop offset="0" stop-color="#463d49" stop-opacity="0.33"/>
    <stop offset="1" stop-color="#340a50" stop-opacity="0.82"/>
   </linearGradient>
   <path clip-rule="evenodd" d="m38.1,36.4c-2.9,21.2 35.1,77.9 58.3,71c-17.7,35.6 -56.9,-21.2 -64,-41.7c1.5,-11 2.2,-16.4 5.7,-29.3z" fill="url(#svg_4)" fill-rule="evenodd"/>
   <linearGradient gradientTransform="matrix(.106 0 0 .2448 -47.595 17.242)" gradientUnits="userSpaceOnUse" id="svg_3" x1="1102.3" x2="1008.07" y1="100.54" y2="431.65">
    <stop offset="0" stop-color="#715383" stop-opacity="0.14"/>
    <stop offset="1" stop-color="#f4f4f4" stop-opacity="0.23"/>
   </linearGradient>
   <path clip-rule="evenodd" d="m60.4,49.7c0.8,7.9 3.9,20.5 0,28.8s-21.7,23.5 -16.8,36.8c11.4,24.8 37.1,-4.4 36.9,-19c1.1,-11.8 -6.6,-38.7 -1.8,-52.5l-2.2,-2.8l-13.6,-4c-2.2,3.2 -3,7.5 -2.5,12.7z" fill="url(#svg_3)" fill-rule="evenodd"/>
   <linearGradient gradientTransform="matrix(.09173 0 0 .2828 -48.536 17.28)" gradientUnits="userSpaceOnUse" id="svg_2" x1="1354.66" x2="1059.23" y1="140.06" y2="84.47">
    <stop offset="0" stop-color="#a5a1a8" stop-opacity="0.36"/>
    <stop offset="1" stop-color="#370c50" stop-opacity="0.58"/>
   </linearGradient>
   <path clip-rule="evenodd" d="m65.3,10.8c-29.3,16.6 -17.3,42.6 -16,70.8l19.1,-55.4c-1.4,-5.7 -2.3,-9.5 -3.1,-15.4z" fill="url(#svg_2)" fill-rule="evenodd"/>
   <path clip-rule="evenodd" d="m68.3,26.1c-14.8,11.7 -14.1,31.3 -18.6,54c8.1,-21.3 4.1,-38.2 18.6,-54z" fill="#330A4C" fill-opacity="0.32" fill-rule="evenodd"/>
   <path clip-rule="evenodd" d="m45.8,119.7c8,1.1 12.1,2.2 12.5,3c0.3,4.2 -11.1,1.2 -12.5,-3z" fill="#FFF" fill-rule="evenodd"/>
   <path clip-rule="evenodd" d="m49.8,10.8c-6.9,7.7 -14.4,21.8 -18.2,29.7c-1,6.5 -0.5,15.7 0.6,23.5c0.9,-18.2 7.5,-39.2 17.6,-53.2z" fill="#EDEDED" fill-opacity="0.6" fill-rule="evenodd"/>
  </symbol>
 </defs>
</svg>