<?xml version="1.0"?>
<svg width="100" height="100" xmlns="http://www.w3.org/2000/svg" xmlns:svg="http://www.w3.org/2000/svg">
 <title>node</title>
 <g class="layer">
  <title>Layer 1</title>
  <path clip-rule="nonzero" d="m47.19,0.68c1.62,-0.82 3.67,-0.82 5.3,0l44.13,22.59c1.62,0.82 2.61,2.39 2.61,4.03l0,45.06c0,1.64 -0.99,3.15 -2.61,3.97l-44.13,22.59c-1.62,0.82 -3.67,0.82 -5.3,0l-11.09,-5.66c-2.47,-1.32 -3.39,-4.15 -1.91,-6.36c1.48,-2.27 4.73,-2.96 7.27,-1.7l8.33,4.22l38.76,-19.83l0,-39.65l-38.76,-19.83l-38.69,19.83l0,39.65l7.98,4.09c2.4,0.69 5.44,0.82 7.55,0c0.92,-0.38 1.84,-1.01 2.54,-2.14c0.71,-1.2 1.41,-3.08 1.41,-6.29l0,-32.66c0,-2.58 2.4,-4.66 5.3,-4.66c2.89,0 5.3,2.14 5.3,4.66l0,32.66c0,4.28 -0.92,7.87 -2.75,10.83c-1.91,2.96 -4.59,4.97 -7.55,6.11c-5.65,2.27 -12,1.32 -15.89,0.13c-0.28,-0.13 -0.56,-0.25 -0.85,-0.38l-11.09,-5.66c-1.62,-0.82 -2.61,-2.39 -2.61,-3.97l0,-45.06c0,-1.7 0.99,-3.21 2.61,-4.03l44.13,-22.59l0,0.06zm4.66,32.22c2.75,-2.9 7.13,-4.85 13.13,-4.85c5.51,0 9.81,1.7 12.64,4.28c2.05,1.89 1.91,4.85 -0.21,6.61c-2.12,1.83 -5.44,1.7 -7.48,-0.19c-0.64,-0.57 -1.91,-1.38 -4.87,-1.38c-3.11,0 -4.38,0.94 -4.94,1.57c-0.78,0.82 -1.06,1.83 -1.06,2.39c0,0.5 0.28,1.51 1.06,2.33c0.56,0.63 1.84,1.57 4.94,1.57c0.56,0 1.06,0.06 1.55,0.19c4.38,0.57 7.7,2.33 10.03,4.66c2.61,2.77 3.53,6.04 3.53,8.37c0,2.33 -0.92,5.54 -3.53,8.31c-2.75,2.9 -7.13,4.85 -13.13,4.85c-5.58,0 -9.81,-1.7 -12.64,-4.28c-2.05,-1.89 -1.91,-4.85 0.21,-6.61c2.12,-1.83 5.44,-1.7 7.48,0.19c0.64,0.57 1.91,1.38 4.87,1.38c3.11,0 4.38,-0.94 4.94,-1.57c0.78,-0.82 1.06,-1.83 1.06,-2.33c0,-0.57 -0.28,-1.57 -1.06,-2.39c-0.56,-0.63 -1.84,-1.57 -4.94,-1.57c-0.56,0 -1.06,-0.06 -1.55,-0.19c-4.38,-0.57 -7.7,-2.33 -10.03,-4.66c-2.68,-2.77 -3.53,-6.04 -3.53,-8.31c0,-2.39 0.85,-5.6 3.53,-8.37z" fill="#000000" fill-rule="nonzero" id="svg_1"/>
 </g>

</svg>