<svg width="124" height="128" xmlns="http://www.w3.org/2000/svg" xmlns:xlink="http://www.w3.org/1999/xlink" xml:space="preserve" overflow="hidden"><defs><clipPath id="clip0"><rect x="0" y="0" width="124" height="128"/></clipPath></defs><g clip-path="url(#clip0)"><path d="M46.5649 78.7352 45.5903 78.5579C38.6686 77.2704 34.2947 73.0844 32.2245 66.4998 30.9293 62.3952 33.2775 59.3747 37.5817 59.1761 41.105 59.0114 43.5192 61.038 45.6514 63.395 48.4017 66.432 50.9214 69.6783 53.6222 72.7628 57.5108 77.2026 62.093 80.0614 68.3618 79.1788 73.9815 78.3883 78.8824 76.1331 83.143 72.4199 83.7833 71.8619 84.4866 71.3746 85.1628 70.8553L84.7366 70.3535C81.158 71.4676 77.5097 71.8386 73.78 71.6517 68.139 71.3688 62.7624 70.1888 57.9526 67.0927 53.5632 64.2659 50.3256 60.4781 48.7882 55.4193 47.5453 51.3312 50.0863 48.4724 54.3246 49.0633 55.9976 49.2978 57.4062 50.0514 58.6733 51.119 59.7021 51.9909 60.6912 52.9112 61.7413 53.7559 66.6858 57.7297 73.594 57.9506 79.8667 53.6358 69.5514 53.5893 62.5328 47.9134 56.3687 40.7224 53.9565 37.9082 51.6014 35.0445 49.1379 32.2729 44.3726 26.9128 39.0871 22.1912 31.8515 20.5782 22.6019 18.5225 13.6758 19.8691 5.10822 23.7906 3.40031 24.5723 1.76022 25.4839-1.72085e-14 26.9487 0.871875 26.9487 1.34656 26.9584 1.82125 26.9487 6.14188 26.8353 9.37944 28.7544 11.7141 32.2884 13.4133 34.8605 14.2135 37.7687 14.8238 40.7602 15.7296 45.2009 15.2597 49.7259 15.7838 54.188 17.1275 65.6551 22.9884 73.657 33.9004 77.7548 37.9033 79.2583 42.0069 79.7582 46.5639 78.7332ZM18.9836 26.4227C17.2602 26.8567 15.8827 26.1611 14.4634 24.7244 16.895 24.119 19.0398 23.8836 21.3445 23.7915 21.1556 25.2892 20.2721 26.0972 18.9856 26.4227ZM75.4928 93.3885C75.3426 92.2831 74.3981 91.7968 73.656 91.2204 70.3778 88.6668 66.5405 87.762 62.4737 87.6883 60.046 87.6428 57.6435 87.4626 55.3563 86.6111 54.3062 86.2236 53.1301 85.7198 53.1592 84.3655 53.1853 82.988 54.3827 82.5995 55.4726 82.274 56.3638 82.0105 57.2841 81.8381 58.2984 81.6007 55.7206 79.948 53.2018 79.7204 49.8451 81.0708 44.5596 83.1924 39.3506 82.9424 34.0835 81.0417 31.1095 79.9664 28.4696 78.2808 25.7232 76.7889L25.6477 76.8422C25.6711 76.825 25.6943 76.8075 25.7174 76.7899 25.6496 76.5836 25.5285 76.5777 25.3696 76.695L25.5847 76.8839C27.8622 80.6184 30.9419 83.6235 34.4207 86.1916 41.1186 91.1352 48.4336 94.085 56.9945 92.7772 59.7617 92.3527 62.5431 92.027 65.3335 91.8007 68.8307 91.5178 72.1602 92.504 75.4928 93.3885ZM59.3534 39.8069C59.1674 39.6732 58.9891 39.338 58.6103 39.6848 61.6919 43.8524 65.6473 46.9214 70.4117 48.855 78.0997 51.9754 85.9029 52.5101 93.8845 49.756 100.082 47.6189 104.536 49.7066 106.85 55.7235 107.185 48.7397 103.076 43.6509 96.533 42.655 92.8518 42.0932 89.4515 43.3138 86.0056 44.3145 76.4102 47.0968 67.4909 45.724 59.3524 39.8069ZM107.178 67.0443C108.427 67.1479 109.679 67.2613 110.929 67.3708 108.104 64.8908 104.661 64.6922 101.176 64.8908 95.8743 65.1911 92.0535 68.2523 88.5689 71.9045 85.498 75.1266 82.7235 78.739 78.1452 80.0342 78.2227 80.1718 78.2421 80.2416 78.2634 80.2416 78.8795 80.2503 79.4956 80.2784 80.1108 80.2503 86.7642 79.95 93.032 78.5462 98.0162 73.717 99.5875 72.198 100.99 70.5095 102.507 68.9314 103.772 67.6139 105.304 66.8844 107.178 67.0423ZM91.7222 58.7983C86.7574 59.2332 82.4455 61.286 78.3951 63.9947 75.2757 66.0775 71.9433 67.0637 68.1952 66.4136 67.5364 66.2974 66.8718 66.2121 66.2102 66.1133L66.1879 66.3884C66.4262 66.5124 66.6558 66.6548 66.9028 66.7546 67.5277 67.0017 68.1428 67.2991 68.7919 67.4521 76.0013 69.1668 82.9047 68.2891 89.1269 64.2688 93.0494 61.7346 97.1094 61.2541 101.51 61.9089 101.956 61.9768 102.399 62.0552 102.845 62.0988 103.258 62.1376 103.69 62.5473 104.249 62.1037 100.402 59.3243 96.2569 58.403 91.7222 58.7983ZM73.9796 41.9449C76.5836 42.035 79.1759 41.6931 81.901 40.0752 81.1018 40.145 80.7657 40.145 80.4402 40.2089 76.6863 40.9568 73.3189 40.1382 70.3167 37.7667 69.2172 36.8968 68.0983 36.0472 66.9823 35.1937 62.5619 31.8147 57.4914 30.6832 51.9473 30.7801 52.0354 31.0513 52.0442 31.2393 52.1391 31.3362 58.1734 37.4364 65.1542 41.6408 73.9796 41.944ZM117.641 73.254C113.909 69.5504 108.897 69.0748 104.261 72.3056 107.33 72.4422 109.633 73.4216 111.501 75.3571 112.156 76.0505 112.853 76.7025 113.589 77.3092 116.415 79.5877 121.201 79.6971 124 77.5823 120.714 76.3007 120.714 76.3007 117.642 73.254ZM80.4566 101.611C77.1764 95.5023 71.6613 94.1247 65.2889 94.5345 67.1683 95.0468 68.9461 95.8771 70.5453 96.9893 72.0295 98.0239 73.2772 99.3027 74.5075 100.617 76.943 103.218 80.7463 104.812 83.2679 104.273 82.1103 103.546 81.0815 102.775 80.4566 101.611ZM110.988 67.4967C110.988 67.456 110.989 67.4182 110.992 67.3766L110.982 67.3872 110.992 67.3775 110.929 67.3698 110.965 67.4008 110.987 67.4948ZM75.6729 93.5328C75.6304 93.508 75.5878 93.4835 75.5451 93.4592 75.5491 93.4861 75.5579 93.512 75.5712 93.5357 75.5809 93.5502 75.639 93.5357 75.6739 93.5328ZM75.5451 93.4592 75.5305 93.4001 75.516 93.4175 75.5305 93.4001 75.4918 93.3904 75.5015 93.435 75.5431 93.4592Z" fill="#FD4F00" transform="matrix(-1 0 0 1.03226 124 0)"/></g></svg>